<svg width="24" height="24" viewBox="0 0 24 24" fill="none" xmlns="http://www.w3.org/2000/svg">
  <defs>
    <linearGradient id="copyGradient" x1="5" y1="3" x2="20" y2="21" gradientUnits="userSpaceOnUse">
      <stop stop-color="#D7B7FF"/>
      <stop offset="0.55" stop-color="#9B7CFF"/>
      <stop offset="1" stop-color="#7CE7F4"/>
    </linearGradient>
  </defs>
  <path d="M8.5 6.25C8.5 4.73 9.73 3.5 11.25 3.5H18C19.52 3.5 20.75 4.73 20.75 6.25V13C20.75 14.52 19.52 15.75 18 15.75H11.25C9.73 15.75 8.5 14.52 8.5 13V6.25Z" fill="url(#copyGradient)" opacity="0.26"/>
  <path d="M8.5 6.25C8.5 4.73 9.73 3.5 11.25 3.5H18C19.52 3.5 20.75 4.73 20.75 6.25V13C20.75 14.52 19.52 15.75 18 15.75H11.25C9.73 15.75 8.5 14.52 8.5 13V6.25Z" stroke="url(#copyGradient)" stroke-width="1.8"/>
  <path d="M4.25 11C4.25 9.48 5.48 8.25 7 8.25H13.75C15.27 8.25 16.5 9.48 16.5 11V17.75C16.5 19.27 15.27 20.5 13.75 20.5H7C5.48 20.5 4.25 19.27 4.25 17.75V11Z" fill="#0C1022"/>
  <path d="M4.25 11C4.25 9.48 5.48 8.25 7 8.25H13.75C15.27 8.25 16.5 9.48 16.5 11V17.75C16.5 19.27 15.27 20.5 13.75 20.5H7C5.48 20.5 4.25 19.27 4.25 17.75V11Z" stroke="url(#copyGradient)" stroke-width="1.8"/>
  <path d="M7.75 12.75H13M7.75 16H11.75" stroke="#F5F0FF" stroke-width="1.7" stroke-linecap="round"/>
</svg>
