<svg xmlns="http://www.w3.org/2000/svg" viewBox="0 0 64 64"><defs><linearGradient id="g" x1="8" y1="8" x2="56" y2="56" gradientUnits="userSpaceOnUse"><stop stop-color="#F4C7FF"/><stop offset=".45" stop-color="#9B6BFF"/><stop offset="1" stop-color="#46E6D6"/></linearGradient><linearGradient id="s" x1="8" y1="8" x2="56" y2="56" gradientUnits="userSpaceOnUse"><stop stop-color="#DCC8FF"/><stop offset="1" stop-color="#60F5E6"/></linearGradient></defs><circle cx="32" cy="32" r="26" fill="url(#g)"/><path d="M23 48c0-6 5-8 9-8s9 2 9 8M21 33c-4-5-3-14 3-18 2 1 4 2 6 4 2-.5 4-.5 6 0 2-2 4-3 6-4 6 4 7 13 3 18-3 5-8 7-13 7s-10-2-11-7Z" stroke="#fff" stroke-width="4" fill="none" stroke-linecap="round" stroke-linejoin="round"/></svg>